<svg width="170" height="141" viewBox="0 0 170 141" fill="none" xmlns="http://www.w3.org/2000/svg">
<path fill-rule="evenodd" clip-rule="evenodd" d="M91.0283 0.718994H78.9718V44.9001L58.9748 3.93607L47.7964 7.67401L68.3116 49.6992L29.5872 17.6491L21.0621 24.7049L58.1777 55.4234L10.0787 38.0305L5.25179 47.1742L56.1462 65.5779H0.606262V75.5563H56.1461L5.25181 93.9599L10.0787 103.104L58.1776 85.7108L21.0621 116.429L29.5872 123.485L68.3116 91.4349L47.7964 133.46L58.9748 137.198L78.9718 96.2341V140.415H91.0283V96.2341L111.025 137.198L122.203 133.46L101.689 91.4349L140.413 123.485L148.938 116.429L111.822 85.7108L159.921 103.104L164.748 93.9599L113.854 75.5563H169.394V65.5779H113.853L164.748 47.1742L159.921 38.0305L111.822 55.4234L148.938 24.7048L140.413 17.6491L101.689 49.6991L122.203 7.67401L111.025 3.93607L91.0283 44.9001V0.718994Z" fill="#56D3EE"/>
</svg>
